# xmcd
#
# Track frame offsets:
#	150
#	17619
#	37160
#	54161
#	76537
#	95308
#	116448
#	133876
#	155677
#	173017
#	190060
#	205663
#	232189
#	253142
#	270790
#	290496
#	304910
#
# Disc length: 4423 seconds
#
# Revision: 1
# Processed by: cddbd v1.4PL0 Copyright (c) Steve Scherf et al.
# Submitted via: MusicWizard 6.0.0
#
DISCID=de114511
DTITLE=Various Artist - Lovesongs - Slow Music Vol. 4
DYEAR=1900
DGENRE=Blues
TTITLE0=kylie Minogue and jason - especially for yo
TTITLE1=George Benson - kisses in the moonlight
TTITLE2=kenny Rogers and sheena easton - we´ve got tonight
TTITLE3=chris norman - midnight lady
TTITLE4=force md - tender love
TTITLE5=bonnie bianco - miss you so
TTITLE6=john lennon - just like starting over
TTITLE7=paul young - wonderland
TTITLE8=rose royce - i wanna get next to you
TTITLE9=kc and the sunshine band - please don´t go
TTITLE10=michael jackson - liberian girl
TTITLE11=George Benson - shiver
TTITLE12=bobby brown - rock wit´cha
TTITLE13=stephanie - irresistible
TTITLE14=olivia newton john - magic
TTITLE15=bolland - you´re in the army now
TTITLE16=genesis - mama
EXTD=
EXTT0=
EXTT1=
EXTT2=
EXTT3=
EXTT4=
EXTT5=
EXTT6=
EXTT7=
EXTT8=
EXTT9=
EXTT10=
EXTT11=
EXTT12=
EXTT13=
EXTT14=
EXTT15=
EXTT16=
PLAYORDER=
